PathFileType	4	(X/Y/Z)	C:\Users\dbl\Desktop\20210112\20210112\bx_n_5_501.trc
DataRate	CameraRate	NumFrames	NumMarkers	Units	OrigDataRate	OrigDataStartFrame	OrigNumFrames
50.00	50.00	       7	43	mm	50.00	453	       517
Frame#	Time	Top.Head			R.Acromium			L.Acromium			Sternum			R.ASIS			L.ASIS			V.Sacral			R.Thigh.Upper			R.Thigh.Front			R.Thigh.Rear			R.Knee.Lat			R.Knee.Med			R.Shank.Upper			R.Shank.Front			R.Shank.Rear			R.Ankle.Lat			R.Midfoot.Lat			R.Toe.Lat			R.Toe.Tip			R.Toe.Med			R.Ankle.Med			R.Midfoot.Sup			R.Heel			L.Thigh.Upper			L.Thigh.Front			L.Thigh.Rear			L.Knee.Lat			L.Knee.Med			L.Shank.Upper			L.Shank.Front			L.Shank.Rear			L.Ankle.Lat			L.Midfoot.Lat			L.Toe.Lat			L.Toe.Tip			L.Toe.Med			L.Ankle.Med			L.Midfoot.Sup			L.Heel			origin1 front left			origin2 front right			origin 3 back right			origin 4 back leftt			
		X1	Y1	Z1	X2	Y2	Z2	X3	Y3	Z3	X4	Y4	Z4	X5	Y5	Z5	X6	Y6	Z6	X7	Y7	Z7	X8	Y8	Z8	X9	Y9	Z9	X10	Y10	Z10	X11	Y11	Z11	X12	Y12	Z12	X13	Y13	Z13	X14	Y14	Z14	X15	Y15	Z15	X16	Y16	Z16	X17	Y17	Z17	X18	Y18	Z18	X19	Y19	Z19	X20	Y20	Z20	X21	Y21	Z21	X22	Y22	Z22	X23	Y23	Z23	X24	Y24	Z24	X25	Y25	Z25	X26	Y26	Z26	X27	Y27	Z27	X28	Y28	Z28	X29	Y29	Z29	X30	Y30	Z30	X31	Y31	Z31	X32	Y32	Z32	X33	Y33	Z33	X34	Y34	Z34	X35	Y35	Z35	X36	Y36	Z36	X37	Y37	Z37	X38	Y38	Z38	X39	Y39	Z39	X40	Y40	Z40	X41	Y41	Z41	X42	Y42	Z42	X43	Y43	Z43	

453	9.040	-732.59143	105.76840	1848.60754	-682.26166	-72.10123	1542.01050	-705.38440	287.34668	1538.14429	-601.30530	106.71141	1360.39807	-593.30774	-3.38028	1057.33582	-613.65161	243.89417	1069.34290	-801.55945	88.31296	1055.81641	-655.29382	-72.97776	874.32941	-585.06152	0.31064	806.91034	-676.57367	-61.34547	759.79260	-699.79138	-36.16881	617.01434	-689.01099	72.86081	574.39532	-707.65558	-34.30716	569.36542	-660.79291	15.18424	519.51367	-752.38739	-47.86795	489.77997	-758.25995	-21.63712	207.68108	-648.61237	-67.43235	161.82736	-606.00964	-72.82018	157.66638	-549.10828	-24.82957	164.34184	-600.25348	27.01158	168.61824	-718.71069	68.94737	217.08400	-675.25702	52.55780	160.73190	-793.84247	36.97148	174.45267	-696.07562	283.94751	876.32404	-596.14093	228.36784	795.52637	-702.68170	270.46335	746.22107	-731.74194	251.34302	644.24335	-691.78003	146.80878	577.19940	-733.66162	248.64609	577.45154	-678.94482	208.58331	536.08179	-773.65247	257.86099	503.64023	-769.31769	228.28339	205.13570	-660.75232	298.30826	157.10577	-624.06592	306.67596	158.62553	-556.34985	254.85925	164.58873	-592.90210	218.89644	174.00522	-712.54974	154.98045	217.87018	-676.03351	173.93462	159.29498	-796.58588	178.90332	184.00923	-528.04327	304.64429	146.83948	-517.67102	-72.86741	143.23418	-875.96472	-78.77412	141.46587	-882.47156	296.18475	144.74527	
454	9.060	-734.94104	105.75819	1848.30310	-684.08942	-72.36735	1542.07104	-706.87872	286.97763	1537.66736	-601.69971	106.24295	1360.62964	-591.92188	-4.09374	1057.27234	-611.88855	243.21957	1069.18408	-800.02747	87.86368	1055.63354	-654.03479	-73.56230	874.17468	-584.17059	-0.04423	806.59741	-675.60211	-61.72702	759.50732	-699.32129	-36.52242	616.84235	-688.59943	72.37738	574.25781	-706.81561	-35.08199	569.59265	-660.27509	14.86332	519.44867	-752.04797	-48.31501	489.69974	-758.37219	-21.86500	207.69740	-648.70050	-67.54933	161.66278	-606.02582	-72.86338	157.67860	-549.10437	-24.75166	164.40141	-600.33252	26.95149	168.64633	-718.78009	68.75902	217.08264	-675.29480	52.51020	160.77274	-793.95398	36.84708	174.51057	-694.48065	283.53217	876.25568	-594.77063	227.76109	795.32263	-701.30365	269.99802	746.11108	-730.62286	251.02229	644.23920	-690.59692	146.58746	577.00745	-732.70380	248.32523	577.48682	-678.09583	208.26430	536.03729	-772.88367	257.56036	503.69330	-769.28210	228.16502	205.23712	-660.73279	298.20023	157.37828	-624.00018	306.62540	158.69746	-556.31000	254.81519	164.57323	-593.00012	218.60336	173.90927	-712.74396	154.76390	217.70247	-676.06244	173.92509	159.25031	-796.56940	178.88676	184.04695	-528.05615	304.61725	146.83583	-517.68176	-72.86887	143.20715	-875.96613	-78.76992	141.46866	-882.48761	296.15543	144.72076	
455	9.080	-737.15314	105.72758	1847.96948	-685.89227	-72.65323	1542.07458	-708.16486	286.59799	1537.25732	-602.24200	105.78587	1360.81909	-590.56384	-4.73402	1057.15588	-610.06506	242.63593	1069.06860	-798.47290	87.50423	1055.42297	-652.74896	-74.14446	874.00940	-583.27997	-0.41472	806.39087	-674.61395	-62.15653	759.27600	-698.68280	-36.91867	616.71075	-688.18359	71.92646	574.20612	-705.93298	-35.85718	569.82556	-659.85919	14.61967	519.29315	-751.65948	-48.73272	489.55338	-758.44983	-22.08627	207.67392	-648.77527	-67.66246	161.51843	-606.03802	-72.90378	157.69687	-549.10175	-24.67236	164.40891	-600.40198	26.90258	168.65408	-718.84174	68.56942	217.07919	-675.31158	52.49443	160.80081	-794.07556	36.74689	174.57959	-692.87579	283.15869	876.12622	-593.41333	227.11359	795.09534	-699.93707	269.57211	746.01642	-729.50647	250.70757	644.25928	-689.81030	146.27765	576.78448	-731.78326	247.97937	577.52924	-677.29639	207.89621	535.89349	-772.08435	257.36194	503.74762	-769.22852	228.10457	205.35190	-660.66724	298.06696	157.60001	-623.94696	306.56998	158.77165	-556.27466	254.77438	164.55197	-593.12799	218.29013	173.80295	-712.89722	154.56326	217.52896	-676.06866	173.90598	159.24948	-796.55212	178.87535	184.07596	-528.06305	304.58209	146.82480	-517.67725	-72.87486	143.18054	-875.95917	-78.74555	141.46237	-882.49792	296.13379	144.70856	
456	9.100	-739.24774	105.69140	1847.61523	-687.61694	-72.95553	1542.00098	-709.21661	286.25003	1536.92456	-602.79181	105.31695	1360.98340	-589.26276	-5.35217	1056.99756	-608.26160	242.13403	1069.00391	-796.96289	87.21236	1055.17273	-651.43933	-74.70847	873.84259	-582.37701	-0.73476	806.27936	-673.58038	-62.58827	759.08643	-697.82336	-37.36371	616.68146	-687.69830	71.54904	574.26581	-705.11847	-36.46529	569.90033	-659.49805	14.37338	519.06567	-751.16925	-49.07111	489.41034	-758.46558	-22.23493	207.60204	-648.82062	-67.73493	161.42667	-606.04962	-72.93086	157.70566	-549.12354	-24.58894	164.34679	-600.45331	26.87332	168.63878	-718.84662	68.43592	217.09067	-675.32184	52.48315	160.80652	-794.13049	36.68235	174.60245	-691.24554	282.80185	875.99530	-592.08112	226.44896	794.84747	-698.58368	269.21271	745.97406	-728.38727	250.40941	644.28961	-689.31403	145.84485	576.61713	-730.87799	247.61287	577.54962	-676.54932	207.49028	535.68353	-771.23779	257.24390	503.82523	-769.16028	228.07736	205.46249	-660.58752	297.91885	157.73671	-623.91656	306.51593	158.82692	-556.24634	254.74670	164.52315	-593.20819	218.03763	173.71167	-712.96008	154.41982	217.37096	-676.04871	173.87506	159.24251	-796.52148	178.86336	184.10995	-528.06476	304.57458	146.81290	-517.65485	-72.88652	143.15471	-875.94580	-78.71986	141.44412	-882.50403	296.13098	144.71695	
457	9.120	-741.19366	105.65409	1847.25281	-689.21399	-73.28143	1541.84302	-710.02448	285.94757	1536.64441	-603.15332	104.84558	1361.12366	-588.07916	-5.96637	1056.82837	-606.59668	241.69305	1068.98071	-795.57233	86.94606	1054.90613	-650.16180	-75.23021	873.67969	-581.46545	-1.02644	806.17255	-672.52917	-62.95919	758.87225	-696.82172	-37.88322	616.76776	-687.14423	71.23100	574.39069	-704.37152	-36.89458	569.82642	-659.12915	14.08327	518.83179	-750.62543	-49.29611	489.31314	-758.44452	-22.29379	207.49858	-648.84448	-67.76570	161.37677	-606.04999	-72.93408	157.70161	-549.17169	-24.50740	164.25029	-600.47858	26.86249	168.61934	-718.78479	68.37143	217.12526	-675.33563	52.46177	160.79784	-794.08777	36.63855	174.55112	-689.63672	282.40247	875.90546	-590.78351	225.80493	794.62378	-697.23218	268.91269	745.97461	-727.29083	250.13544	644.31769	-688.91089	145.32582	576.55365	-729.99396	247.26222	577.53180	-675.81665	207.08229	535.51007	-770.39410	257.12839	503.92154	-769.07770	228.03508	205.54794	-660.51581	297.77563	157.80272	-623.90662	306.46750	158.85851	-556.21356	254.73672	164.49532	-593.19122	217.89285	173.64003	-712.94861	154.32977	217.24429	-676.00250	173.82289	159.20352	-796.46576	178.83075	184.16663	-528.05811	304.59805	146.80153	-517.63159	-72.90988	143.13649	-875.93866	-78.71069	141.43158	-882.50677	296.13666	144.73386	
458	9.140	-742.96118	105.58074	1846.89307	-690.66235	-73.62611	1541.63403	-710.64380	285.69092	1536.37463	-603.28241	104.37958	1361.21387	-587.01923	-6.56295	1056.69360	-605.11285	241.28682	1068.96252	-794.30286	86.67582	1054.63513	-648.98279	-75.69526	873.49982	-580.54474	-1.34578	806.01434	-671.50110	-63.26517	758.63556	-695.82336	-38.41506	616.87408	-686.55719	70.94711	574.53143	-703.65155	-37.20148	569.71478	-658.71271	13.77489	518.65948	-750.13458	-49.41324	489.27344	-758.42029	-22.29255	207.40451	-648.85345	-67.78117	161.35001	-606.02661	-72.90773	157.69284	-549.21490	-24.44851	164.16953	-600.46759	26.87109	168.61389	-718.70581	68.32439	217.16582	-675.34851	52.43932	160.78755	-793.99487	36.59835	174.46631	-688.11725	281.94711	875.84857	-589.51660	225.20247	794.45398	-695.88593	268.62149	745.97156	-726.24689	249.84520	644.32202	-688.35406	144.82304	576.57941	-729.13141	246.94733	577.48865	-675.07019	206.69887	535.41626	-769.60400	256.94476	504.00925	-768.96863	227.94592	205.61456	-660.44482	297.65466	157.84485	-623.90009	306.42383	158.88483	-556.17468	254.74765	164.48300	-593.08966	217.82104	173.56668	-712.90936	154.26344	217.17302	-675.94202	173.75703	159.13922	-796.39301	178.76259	184.24158	-528.04559	304.62689	146.78714	-517.62830	-72.93466	143.13696	-875.94763	-78.72365	141.44077	-882.50317	296.14688	144.74658	
459	9.160	-744.56152	105.42008	1846.53381	-691.98956	-73.95428	1541.42371	-711.16254	285.48029	1536.09082	-603.28595	103.91116	1361.22937	-586.03076	-7.12996	1056.63123	-603.75598	240.88049	1068.90332	-793.09460	86.40968	1054.34021	-647.93689	-76.11189	873.30695	-579.63470	-1.71727	805.81213	-670.54370	-63.56383	758.46210	-694.98688	-38.81819	616.87250	-685.93988	70.68275	574.62244	-703.00616	-37.39832	569.63000	-658.25104	13.50433	518.58063	-749.76935	-49.45554	489.28079	-758.41107	-22.26508	207.36334	-648.84644	-67.80278	161.33369	-605.98572	-72.86887	157.68913	-549.22455	-24.41746	164.12254	-600.40631	26.91540	168.62120	-718.66028	68.25962	217.18639	-675.35651	52.42693	160.78015	-793.92145	36.56891	174.41853	-686.71405	281.49020	875.77863	-588.27271	224.62976	794.33325	-694.59027	268.27667	745.91785	-725.27448	249.49695	644.28918	-687.51263	144.41949	576.63177	-728.28839	246.64236	577.44196	-674.33795	206.35970	535.34167	-768.88947	256.68594	504.07675	-768.82153	227.80939	205.68697	-660.36578	297.57098	157.89503	-623.87952	306.37393	158.92453	-556.14362	254.77087	164.48782	-592.94543	217.75699	173.48843	-712.87311	154.20815	217.16489	-675.89020	173.70033	159.07526	-796.32806	178.66991	184.31081	-528.03711	304.63513	146.76622	-517.64160	-72.94178	143.16162	-875.96631	-78.74415	141.46484	-882.49091	296.17203	144.75923	
